HIERARCHY
ROOT Hips
{
	OFFSET -3.958830 18.904000 13.208200
	CHANNELS 6 Xposition Yposition Zposition Zrotation Yrotation Xrotation 
	JOINT LHipJoint
	{
		OFFSET 0.000000 0.000000 0.000000
		CHANNELS 3 Zrotation Yrotation Xrotation
		JOINT LeftUpLeg
		{
			OFFSET 1.800000 -1.400000 0.085000
			CHANNELS 3 Zrotation Yrotation Xrotation
			JOINT LeftLeg
			{
				OFFSET 2.215000 -6.000000 0.000000
				CHANNELS 3 Zrotation Yrotation Xrotation
				JOINT LeftFoot
				{
					OFFSET 2.500000 -6.900000 0.000000
					CHANNELS 3 Zrotation Yrotation Xrotation
					JOINT LeftToeBase
					{
						OFFSET 0.200000 -0.500000 1.950000
						CHANNELS 3 Zrotation Yrotation Xrotation
						End Site
						{
							OFFSET 0.000000 0.000000 0.000000
						}
					}
				}
			}
		}
	}
	JOINT RHipJoint
	{
		OFFSET 0.000000 0.000000 0.000000
		CHANNELS 3 Zrotation Yrotation Xrotation
		JOINT RightUpLeg
		{
			OFFSET -1.800000 -1.400000 0.085000
			CHANNELS 3 Zrotation Yrotation Xrotation
			JOINT RightLeg
			{
				OFFSET -2.215000 -6.000000 0.000000
				CHANNELS 3 Zrotation Yrotation Xrotation
				JOINT RightFoot
				{
					OFFSET -2.500000 -6.900000 0.000000
					CHANNELS 3 Zrotation Yrotation Xrotation
					JOINT RightToeBase
					{
						OFFSET -0.200000 -0.500000 1.950000
						CHANNELS 3 Zrotation Yrotation Xrotation
						End Site
						{
							OFFSET 0.000000 0.000000 0.000000
						}
					}
				}
			}
		}
	}
	JOINT LowerBack
	{
		OFFSET 0.000000 0.000000 0.000000
		CHANNELS 3 Zrotation Yrotation Xrotation
		JOINT Spine
		{
			OFFSET -0.087000 1.940000 -0.288900
			CHANNELS 3 Zrotation Yrotation Xrotation
			JOINT Spine1
			{
				OFFSET 0.000000 1.950000 0.060000
				CHANNELS 3 Zrotation Yrotation Xrotation
				JOINT Neck
				{
					OFFSET 0.000000 0.000000 0.000000
					CHANNELS 3 Zrotation Yrotation Xrotation
					JOINT Neck1
					{
						OFFSET 0.000000 1.600000 0.340000
						CHANNELS 3 Zrotation Yrotation Xrotation
						JOINT Head
						{
							OFFSET 0.000000 1.667000 -0.240000
							CHANNELS 3 Zrotation Yrotation Xrotation
							End Site
							{
								OFFSET 0.000000 0.000000 0.000000
							}
						}
					}
				}
				JOINT LeftShoulder
				{
					OFFSET 0.000000 0.000000 0.000000
					CHANNELS 3 Zrotation Yrotation Xrotation
					JOINT LeftArm
					{
						OFFSET 2.700000 1.550000 -0.730000
						CHANNELS 3 Zrotation Yrotation Xrotation
						JOINT LeftForeArm
						{
							OFFSET 5.450000 0.000000 0.000000
							CHANNELS 3 Zrotation Yrotation Xrotation
							JOINT LeftHand
							{
								OFFSET 3.450000 0.000000 0.000000
								CHANNELS 3 Zrotation Yrotation Xrotation
								JOINT LeftHandIndex1
								{
									OFFSET 0.750000 0.000000 0.000000
									CHANNELS 3 Zrotation Yrotation Xrotation
									End Site
									{
										OFFSET 0.000000 0.000000 0.000000
									}
								}
							}
						}
					}
				}
				JOINT RightShoulder
				{
					OFFSET 0.000000 0.000000 0.000000
					CHANNELS 3 Zrotation Yrotation Xrotation
					JOINT RightArm
					{
						OFFSET -2.700000 1.550000 -0.730000
						CHANNELS 3 Zrotation Yrotation Xrotation
						JOINT RightForeArm
						{
							OFFSET -5.450000 0.000000 0.000000
							CHANNELS 3 Zrotation Yrotation Xrotation
							JOINT RightHand
							{
								OFFSET -3.450000 0.000000 0.000000
								CHANNELS 3 Zrotation Yrotation Xrotation
								JOINT RightHandIndex1
								{
									OFFSET -0.750000 0.000000 0.000000
									CHANNELS 3 Zrotation Yrotation Xrotation
									End Site
									{
										OFFSET 0.000000 0.000000 0.000000
									}
								}
							}
						}
					}
				}
			}
		}
	}
}
MOTION
Frames: 5
Frame Time: 0.016667
0.366100 17.216150 -5.525610 2.338601 4.848121 -11.943247 -14.875418 13.986925 3.405734 3.162389 -1.190356 1.065343 -14.763558 8.617697 14.408858 0.323408 5.533317 2.686603 0.532420 0.297700 0.507220 18.603306 -10.359803 2.503626 10.327952 -0.747134 -29.539199 -26.601287 2.134456 44.723418 -1.088359 -6.484759 2.177576 0.045620 -0.227010 -0.003690 -4.556674 -4.063218 -7.776604 15.027571 -15.504240 19.672633 -20.471243 -10.725693 16.537005 5.867776 -4.085064 -22.735737 -25.163687 11.723256 50.477581 2.113200 3.821370 -6.470430 -35.109307 -33.138557 19.402617 -33.590796 -24.056293 -24.209593 126.610995 -45.167555 -89.176388 -4.151419 1.782227 0.568290 -0.232800 0.196850 0.078310 22.103971 31.774029 13.887391 67.868824 -0.039777 -19.521870 -15.008001 33.363738 -7.175102 2.107066 -1.397037 0.000740 0.042720 -0.244510 -0.234980 
0.363590 17.228800 -5.506180 2.820948 4.752269 -12.341480 -14.901134 14.081869 3.480079 2.927365 -1.072664 1.794530 -14.786616 8.644059 14.208163 0.340926 5.566239 2.671756 0.546250 0.316230 0.532770 18.558302 -10.354512 2.470432 9.771507 -0.913333 -29.613154 -25.756900 1.760672 44.134124 -1.051134 -6.268590 2.244299 0.048320 -0.248300 -0.006190 -4.460148 -4.225113 -7.863156 13.547798 -15.274794 20.193367 -19.774917 -10.665436 16.832186 5.820872 -3.673480 -23.289412 -24.874021 12.206664 52.046227 1.906270 4.396940 -7.003460 -35.650196 -33.852169 20.104376 -33.255710 -24.077916 -26.414685 125.879371 -45.640949 -86.939518 -4.202601 1.693648 0.588490 -0.247030 0.221920 0.072330 22.702978 32.451073 14.097901 67.405179 -0.170408 -19.475494 -15.657756 32.775767 -7.249919 2.106557 -1.381608 0.005060 0.050630 -0.252380 -0.243950 
0.356730 17.238860 -5.469540 3.435899 4.650633 -12.596155 -14.953855 14.233389 3.590461 2.708410 -1.049484 2.478504 -15.073575 8.797558 14.341606 0.369634 5.676104 2.631434 0.555300 0.323910 0.555640 18.477072 -10.355255 2.373171 8.386050 -1.271586 -29.783153 -23.365829 0.717438 42.789473 -0.936034 -5.784348 2.395883 0.048760 -0.264120 -0.007480 -4.276126 -4.520425 -7.952559 11.496538 -14.929859 20.481814 -18.660753 -10.762911 16.734917 5.729727 -3.319417 -23.570531 -24.646928 12.884851 53.437428 1.733640 5.163250 -7.177930 -35.728430 -33.751086 20.712762 -33.922662 -25.064815 -28.942831 123.468660 -46.721707 -82.369760 -4.284579 1.633844 0.608630 -0.255800 0.240400 0.067040 23.028074 32.328535 13.958009 67.427593 -0.148049 -19.242371 -16.338949 31.734437 -7.211498 2.117817 -1.367532 0.003310 0.055540 -0.257720 -0.256210 
0.349050 17.248660 -5.417250 4.019538 4.218431 -12.426276 -15.026133 14.379631 3.670684 2.465595 -1.084940 2.696423 -15.345263 8.988868 14.786705 0.399466 5.798619 2.588147 0.532530 0.294750 0.545460 18.386254 -10.306444 2.296207 6.784681 -1.427765 -30.333864 -20.223919 -0.496008 40.986257 -0.774893 -5.211085 2.576999 0.029620 -0.253300 0.002720 -4.041311 -4.891615 -8.009019 9.710020 -14.567288 20.312923 -17.398395 -11.088741 15.453633 5.708950 -3.480931 -22.893539 -25.171328 13.584523 53.200015 1.221680 5.821580 -6.633660 -36.034528 -31.895077 20.439898 -35.172168 -25.726535 -29.784062 119.806150 -48.249563 -77.467665 -4.376489 1.687471 0.604110 -0.242320 0.231130 0.054250 23.651753 30.607049 13.329581 67.128796 -0.540466 -18.536261 -16.325060 30.255728 -6.738546 2.148513 -1.348768 0.002280 0.046800 -0.238470 -0.258820 
0.331050 17.251660 -5.352550 4.726017 3.381345 -11.836456 -15.122339 14.495871 3.715053 2.162790 -1.096903 2.586151 -15.613782 9.164493 15.183545 0.463042 5.864565 2.585021 0.514450 0.272630 0.527590 18.286138 -10.191702 2.274506 5.159568 -1.283834 -31.298817 -16.700144 -1.641860 39.433344 -0.631847 -4.696789 2.754490 0.007420 -0.240260 -0.002210 -3.745890 -5.318049 -8.039967 7.968516 -14.098791 19.872013 -15.933837 -11.504711 12.678096 5.748055 -4.201509 -21.403226 -26.972404 14.282372 51.531185 0.601950 6.154490 -5.352460 -35.476626 -28.116136 18.780537 -38.437818 -25.569265 -27.616959 115.001157 -49.522274 -73.449548 -4.366227 1.876337 0.581470 -0.236980 0.219620 0.071300 23.614718 27.184484 12.260067 67.968898 -1.322950 -18.127098 -15.615216 29.388256 -6.187782 2.209478 -1.331104 0.006620 0.037290 -0.250130 -0.243350 
